<mxfile host="app.diagrams.net" modified="2023-09-30T18:13:06.975Z" agent="Mozilla/5.0 (Windows NT 10.0; Win64; x64) AppleWebKit/537.36 (KHTML, like Gecko) Chrome/117.0.0.0 Safari/537.36" etag="eKD8kj9NZ22H0mYZax3T" version="21.8.2" type="device" pages="2">
  <diagram name="Page-1" id="TJxOVbd3Vdn27RqD6Zjb">
    <mxGraphModel dx="5607" dy="2527" grid="1" gridSize="10" guides="1" tooltips="1" connect="1" arrows="1" fold="1" page="1" pageScale="1" pageWidth="827" pageHeight="1169" math="0" shadow="0">
      <root>
        <mxCell id="0" />
        <mxCell id="1" parent="0" />
        <mxCell id="XT86G5iFUfY1uDqCxJD4-81" value="" style="rounded=0;whiteSpace=wrap;html=1;" vertex="1" parent="1">
          <mxGeometry x="-827" width="1244" height="645" as="geometry" />
        </mxCell>
        <mxCell id="XT86G5iFUfY1uDqCxJD4-1" value="" style="rounded=1;whiteSpace=wrap;html=1;fillColor=#dae8fc;strokeColor=#6c8ebf;" vertex="1" parent="1">
          <mxGeometry x="-813" y="39" width="740" height="570" as="geometry" />
        </mxCell>
        <mxCell id="XT86G5iFUfY1uDqCxJD4-2" value="Existing DirectX 11 Windows Application" style="rounded=0;whiteSpace=wrap;html=1;" vertex="1" parent="1">
          <mxGeometry x="-740" y="19" width="240" height="20" as="geometry" />
        </mxCell>
        <mxCell id="XT86G5iFUfY1uDqCxJD4-3" value="" style="rounded=1;whiteSpace=wrap;html=1;fillColor=#fff2cc;strokeColor=#d6b656;" vertex="1" parent="1">
          <mxGeometry x="-783" y="248" width="680" height="331" as="geometry" />
        </mxCell>
        <mxCell id="XT86G5iFUfY1uDqCxJD4-4" value="" style="rounded=1;whiteSpace=wrap;html=1;fillColor=#d5e8d4;strokeColor=#82b366;" vertex="1" parent="1">
          <mxGeometry x="-725" y="319" width="210" height="200" as="geometry" />
        </mxCell>
        <mxCell id="XT86G5iFUfY1uDqCxJD4-5" value="" style="rounded=1;whiteSpace=wrap;html=1;fillColor=#0050ef;fontColor=#ffffff;strokeColor=#001DBC;" vertex="1" parent="1">
          <mxGeometry x="-435" y="319" width="254" height="200" as="geometry" />
        </mxCell>
        <mxCell id="XT86G5iFUfY1uDqCxJD4-6" value="Game loop" style="rounded=0;whiteSpace=wrap;html=1;" vertex="1" parent="1">
          <mxGeometry x="-740" y="228" width="240" height="20" as="geometry" />
        </mxCell>
        <mxCell id="XT86G5iFUfY1uDqCxJD4-7" value="Render pipeline" style="rounded=0;whiteSpace=wrap;html=1;" vertex="1" parent="1">
          <mxGeometry x="-405" y="299" width="190" height="20" as="geometry" />
        </mxCell>
        <mxCell id="XT86G5iFUfY1uDqCxJD4-8" value="Draw Characters" style="rounded=0;whiteSpace=wrap;html=1;" vertex="1" parent="1">
          <mxGeometry x="-418" y="351" width="220" height="30" as="geometry" />
        </mxCell>
        <mxCell id="XT86G5iFUfY1uDqCxJD4-9" value="Draw Scenery" style="rounded=0;whiteSpace=wrap;html=1;" vertex="1" parent="1">
          <mxGeometry x="-418" y="386" width="220" height="30" as="geometry" />
        </mxCell>
        <mxCell id="XT86G5iFUfY1uDqCxJD4-10" value="Draw Sky" style="rounded=0;whiteSpace=wrap;html=1;" vertex="1" parent="1">
          <mxGeometry x="-418" y="421" width="220" height="30" as="geometry" />
        </mxCell>
        <mxCell id="XT86G5iFUfY1uDqCxJD4-12" value="..." style="rounded=0;whiteSpace=wrap;html=1;" vertex="1" parent="1">
          <mxGeometry x="-418" y="457" width="220" height="30" as="geometry" />
        </mxCell>
        <mxCell id="XT86G5iFUfY1uDqCxJD4-14" value="Physics and game logic" style="rounded=0;whiteSpace=wrap;html=1;" vertex="1" parent="1">
          <mxGeometry x="-705" y="299" width="170" height="20" as="geometry" />
        </mxCell>
        <mxCell id="XT86G5iFUfY1uDqCxJD4-15" value="" style="rounded=1;whiteSpace=wrap;html=1;fillColor=#f8cecc;strokeColor=#b85450;" vertex="1" parent="1">
          <mxGeometry x="-773" y="69" width="670" height="150" as="geometry" />
        </mxCell>
        <mxCell id="XT86G5iFUfY1uDqCxJD4-16" value="Application Initialisation" style="rounded=0;whiteSpace=wrap;html=1;" vertex="1" parent="1">
          <mxGeometry x="-740" y="49" width="240" height="20" as="geometry" />
        </mxCell>
        <mxCell id="XT86G5iFUfY1uDqCxJD4-18" value="" style="rounded=1;whiteSpace=wrap;html=1;fillColor=#d5e8d4;strokeColor=#82b366;" vertex="1" parent="1">
          <mxGeometry x="-733" y="100" width="250" height="108" as="geometry" />
        </mxCell>
        <mxCell id="XT86G5iFUfY1uDqCxJD4-19" value="Other stuff initialisation" style="rounded=0;whiteSpace=wrap;html=1;" vertex="1" parent="1">
          <mxGeometry x="-703" y="80" width="170" height="20" as="geometry" />
        </mxCell>
        <mxCell id="XT86G5iFUfY1uDqCxJD4-22" value="" style="rounded=1;whiteSpace=wrap;html=1;fillColor=#0050ef;fontColor=#ffffff;strokeColor=#001DBC;" vertex="1" parent="1">
          <mxGeometry x="-431" y="101" width="250" height="108" as="geometry" />
        </mxCell>
        <mxCell id="XT86G5iFUfY1uDqCxJD4-23" value="DirectX 11 initalisation" style="rounded=0;whiteSpace=wrap;html=1;" vertex="1" parent="1">
          <mxGeometry x="-401" y="81" width="170" height="20" as="geometry" />
        </mxCell>
        <mxCell id="XT86G5iFUfY1uDqCxJD4-24" value="DirectX Device" style="rounded=0;whiteSpace=wrap;html=1;" vertex="1" parent="1">
          <mxGeometry x="-421" y="122.5" width="220" height="30" as="geometry" />
        </mxCell>
        <mxCell id="XT86G5iFUfY1uDqCxJD4-25" value="DirectX Device Context" style="rounded=0;whiteSpace=wrap;html=1;" vertex="1" parent="1">
          <mxGeometry x="-421" y="157.5" width="220" height="30" as="geometry" />
        </mxCell>
        <mxCell id="XT86G5iFUfY1uDqCxJD4-26" value="Physics engine initialisation" style="rounded=0;whiteSpace=wrap;html=1;" vertex="1" parent="1">
          <mxGeometry x="-718" y="120" width="220" height="30" as="geometry" />
        </mxCell>
        <mxCell id="XT86G5iFUfY1uDqCxJD4-27" value="..." style="rounded=0;whiteSpace=wrap;html=1;" vertex="1" parent="1">
          <mxGeometry x="-718" y="159" width="220" height="30" as="geometry" />
        </mxCell>
        <mxCell id="XT86G5iFUfY1uDqCxJD4-29" value="" style="shape=flexArrow;endArrow=classic;html=1;rounded=0;exitX=1;exitY=0.5;exitDx=0;exitDy=0;entryX=0;entryY=0.5;entryDx=0;entryDy=0;fillColor=#e51400;strokeColor=#B20000;" edge="1" parent="1" source="XT86G5iFUfY1uDqCxJD4-4" target="XT86G5iFUfY1uDqCxJD4-5">
          <mxGeometry width="50" height="50" relative="1" as="geometry">
            <mxPoint x="-383" y="299" as="sourcePoint" />
            <mxPoint x="-333" y="249" as="targetPoint" />
          </mxGeometry>
        </mxCell>
        <mxCell id="XT86G5iFUfY1uDqCxJD4-30" value="" style="shape=flexArrow;endArrow=classic;html=1;rounded=0;exitX=0.5;exitY=1;exitDx=0;exitDy=0;entryX=0;entryY=0.5;entryDx=0;entryDy=0;fillColor=#e51400;strokeColor=#B20000;" edge="1" parent="1" source="XT86G5iFUfY1uDqCxJD4-5" target="XT86G5iFUfY1uDqCxJD4-4">
          <mxGeometry width="50" height="50" relative="1" as="geometry">
            <mxPoint x="-505" y="429" as="sourcePoint" />
            <mxPoint x="-425" y="429" as="targetPoint" />
            <Array as="points">
              <mxPoint x="-308" y="539" />
              <mxPoint x="-753" y="539" />
              <mxPoint x="-753" y="419" />
            </Array>
          </mxGeometry>
        </mxCell>
      </root>
    </mxGraphModel>
  </diagram>
  <diagram id="pgbgCihm_HcVvaUHmrHQ" name="Page-2">
    <mxGraphModel dx="1793" dy="948" grid="1" gridSize="10" guides="1" tooltips="1" connect="1" arrows="1" fold="1" page="1" pageScale="0.75" pageWidth="827" pageHeight="1169" math="0" shadow="0">
      <root>
        <mxCell id="0" />
        <mxCell id="1" parent="0" />
        <mxCell id="UbjWwHBPr7lLN9u0YtsL-1" value="" style="rounded=0;whiteSpace=wrap;html=1;" vertex="1" parent="1">
          <mxGeometry width="1239" height="640" as="geometry" />
        </mxCell>
        <mxCell id="UbjWwHBPr7lLN9u0YtsL-2" value="" style="rounded=1;whiteSpace=wrap;html=1;fillColor=#dae8fc;strokeColor=#6c8ebf;" vertex="1" parent="1">
          <mxGeometry x="9" y="34" width="1210" height="570" as="geometry" />
        </mxCell>
        <mxCell id="UbjWwHBPr7lLN9u0YtsL-3" value="DirectX 11 Windows Application with OpenXR" style="rounded=0;whiteSpace=wrap;html=1;" vertex="1" parent="1">
          <mxGeometry x="82" y="14" width="287" height="20" as="geometry" />
        </mxCell>
        <mxCell id="UbjWwHBPr7lLN9u0YtsL-4" value="" style="rounded=1;whiteSpace=wrap;html=1;fillColor=#fff2cc;strokeColor=#d6b656;" vertex="1" parent="1">
          <mxGeometry x="39" y="254" width="1150" height="331" as="geometry" />
        </mxCell>
        <mxCell id="UbjWwHBPr7lLN9u0YtsL-5" value="" style="rounded=1;whiteSpace=wrap;html=1;fillColor=#d5e8d4;strokeColor=#82b366;" vertex="1" parent="1">
          <mxGeometry x="97" y="325" width="210" height="200" as="geometry" />
        </mxCell>
        <mxCell id="UbjWwHBPr7lLN9u0YtsL-6" value="" style="rounded=1;whiteSpace=wrap;html=1;fillColor=#0050ef;fontColor=#ffffff;strokeColor=#001DBC;" vertex="1" parent="1">
          <mxGeometry x="879" y="335" width="254" height="200" as="geometry" />
        </mxCell>
        <mxCell id="UbjWwHBPr7lLN9u0YtsL-7" value="Game loop" style="rounded=0;whiteSpace=wrap;html=1;" vertex="1" parent="1">
          <mxGeometry x="82" y="234" width="240" height="20" as="geometry" />
        </mxCell>
        <mxCell id="UbjWwHBPr7lLN9u0YtsL-8" value="Render pipeline" style="rounded=0;whiteSpace=wrap;html=1;" vertex="1" parent="1">
          <mxGeometry x="909" y="315" width="190" height="20" as="geometry" />
        </mxCell>
        <mxCell id="UbjWwHBPr7lLN9u0YtsL-9" value="Draw Characters" style="rounded=0;whiteSpace=wrap;html=1;" vertex="1" parent="1">
          <mxGeometry x="896" y="367" width="220" height="30" as="geometry" />
        </mxCell>
        <mxCell id="UbjWwHBPr7lLN9u0YtsL-10" value="Draw Scenery" style="rounded=0;whiteSpace=wrap;html=1;" vertex="1" parent="1">
          <mxGeometry x="896" y="402" width="220" height="30" as="geometry" />
        </mxCell>
        <mxCell id="UbjWwHBPr7lLN9u0YtsL-11" value="Draw Sky" style="rounded=0;whiteSpace=wrap;html=1;" vertex="1" parent="1">
          <mxGeometry x="896" y="437" width="220" height="30" as="geometry" />
        </mxCell>
        <mxCell id="UbjWwHBPr7lLN9u0YtsL-12" value="..." style="rounded=0;whiteSpace=wrap;html=1;" vertex="1" parent="1">
          <mxGeometry x="896" y="473" width="220" height="30" as="geometry" />
        </mxCell>
        <mxCell id="UbjWwHBPr7lLN9u0YtsL-13" value="Physics and game logic" style="rounded=0;whiteSpace=wrap;html=1;" vertex="1" parent="1">
          <mxGeometry x="117" y="305" width="170" height="20" as="geometry" />
        </mxCell>
        <mxCell id="UbjWwHBPr7lLN9u0YtsL-14" value="" style="rounded=1;whiteSpace=wrap;html=1;fillColor=#f8cecc;strokeColor=#b85450;" vertex="1" parent="1">
          <mxGeometry x="49" y="64" width="1140" height="160" as="geometry" />
        </mxCell>
        <mxCell id="UbjWwHBPr7lLN9u0YtsL-15" value="Application Initialisation" style="rounded=0;whiteSpace=wrap;html=1;" vertex="1" parent="1">
          <mxGeometry x="82" y="44" width="240" height="20" as="geometry" />
        </mxCell>
        <mxCell id="UbjWwHBPr7lLN9u0YtsL-16" value="" style="rounded=1;whiteSpace=wrap;html=1;fillColor=#d5e8d4;strokeColor=#82b366;" vertex="1" parent="1">
          <mxGeometry x="89" y="95" width="250" height="108" as="geometry" />
        </mxCell>
        <mxCell id="UbjWwHBPr7lLN9u0YtsL-17" value="Other stuff initialisation" style="rounded=0;whiteSpace=wrap;html=1;" vertex="1" parent="1">
          <mxGeometry x="119" y="75" width="170" height="20" as="geometry" />
        </mxCell>
        <mxCell id="UbjWwHBPr7lLN9u0YtsL-18" value="" style="rounded=1;whiteSpace=wrap;html=1;fillColor=#0050ef;fontColor=#ffffff;strokeColor=#001DBC;" vertex="1" parent="1">
          <mxGeometry x="879" y="100" width="250" height="108" as="geometry" />
        </mxCell>
        <mxCell id="UbjWwHBPr7lLN9u0YtsL-19" value="DirectX 11 initalisation" style="rounded=0;whiteSpace=wrap;html=1;" vertex="1" parent="1">
          <mxGeometry x="909" y="80" width="170" height="20" as="geometry" />
        </mxCell>
        <mxCell id="UbjWwHBPr7lLN9u0YtsL-20" value="DirectX Device" style="rounded=0;whiteSpace=wrap;html=1;" vertex="1" parent="1">
          <mxGeometry x="889" y="121.5" width="220" height="30" as="geometry" />
        </mxCell>
        <mxCell id="UbjWwHBPr7lLN9u0YtsL-21" value="DirectX Device Context" style="rounded=0;whiteSpace=wrap;html=1;" vertex="1" parent="1">
          <mxGeometry x="889" y="156.5" width="220" height="30" as="geometry" />
        </mxCell>
        <mxCell id="UbjWwHBPr7lLN9u0YtsL-22" value="Physics engine initialisation" style="rounded=0;whiteSpace=wrap;html=1;" vertex="1" parent="1">
          <mxGeometry x="104" y="115" width="220" height="30" as="geometry" />
        </mxCell>
        <mxCell id="UbjWwHBPr7lLN9u0YtsL-23" value="..." style="rounded=0;whiteSpace=wrap;html=1;" vertex="1" parent="1">
          <mxGeometry x="104" y="154" width="220" height="30" as="geometry" />
        </mxCell>
        <mxCell id="UbjWwHBPr7lLN9u0YtsL-24" value="" style="shape=flexArrow;endArrow=classic;html=1;rounded=0;exitX=1;exitY=0.5;exitDx=0;exitDy=0;fillColor=#e51400;strokeColor=#B20000;" edge="1" parent="1" source="UbjWwHBPr7lLN9u0YtsL-5">
          <mxGeometry width="50" height="50" relative="1" as="geometry">
            <mxPoint x="439" y="305" as="sourcePoint" />
            <mxPoint x="389" y="424" as="targetPoint" />
          </mxGeometry>
        </mxCell>
        <mxCell id="UbjWwHBPr7lLN9u0YtsL-25" value="" style="shape=flexArrow;endArrow=classic;html=1;rounded=0;exitX=0.5;exitY=1;exitDx=0;exitDy=0;entryX=0;entryY=0.5;entryDx=0;entryDy=0;fillColor=#e51400;strokeColor=#B20000;" edge="1" parent="1" source="UbjWwHBPr7lLN9u0YtsL-32" target="UbjWwHBPr7lLN9u0YtsL-5">
          <mxGeometry width="50" height="50" relative="1" as="geometry">
            <mxPoint x="317" y="435" as="sourcePoint" />
            <mxPoint x="397" y="435" as="targetPoint" />
            <Array as="points">
              <mxPoint x="609" y="554" />
              <mxPoint x="69" y="554" />
              <mxPoint x="69" y="425" />
            </Array>
          </mxGeometry>
        </mxCell>
        <mxCell id="UbjWwHBPr7lLN9u0YtsL-26" value="" style="rounded=1;whiteSpace=wrap;html=1;fillColor=#008a00;strokeColor=#005700;fontColor=#ffffff;" vertex="1" parent="1">
          <mxGeometry x="387" y="94.5" width="432" height="119" as="geometry" />
        </mxCell>
        <mxCell id="UbjWwHBPr7lLN9u0YtsL-27" value="OpenXR initalisation" style="rounded=0;whiteSpace=wrap;html=1;" vertex="1" parent="1">
          <mxGeometry x="417" y="74.5" width="170" height="20" as="geometry" />
        </mxCell>
        <mxCell id="UbjWwHBPr7lLN9u0YtsL-28" value="Init Sesion" style="rounded=0;whiteSpace=wrap;html=1;" vertex="1" parent="1">
          <mxGeometry x="397" y="103.5" width="220" height="30" as="geometry" />
        </mxCell>
        <mxCell id="UbjWwHBPr7lLN9u0YtsL-29" value="Init System" style="rounded=0;whiteSpace=wrap;html=1;" vertex="1" parent="1">
          <mxGeometry x="397" y="139.5" width="220" height="30" as="geometry" />
        </mxCell>
        <mxCell id="UbjWwHBPr7lLN9u0YtsL-30" value="Init Device" style="rounded=0;whiteSpace=wrap;html=1;" vertex="1" parent="1">
          <mxGeometry x="397" y="173.5" width="220" height="30" as="geometry" />
        </mxCell>
        <mxCell id="UbjWwHBPr7lLN9u0YtsL-31" value="" style="shape=flexArrow;endArrow=classic;html=1;rounded=0;entryX=1;entryY=0.5;entryDx=0;entryDy=0;fillColor=#e51400;strokeColor=#B20000;" edge="1" parent="1" target="UbjWwHBPr7lLN9u0YtsL-41">
          <mxGeometry width="50" height="50" relative="1" as="geometry">
            <mxPoint x="879" y="154" as="sourcePoint" />
            <mxPoint x="397" y="435" as="targetPoint" />
          </mxGeometry>
        </mxCell>
        <mxCell id="UbjWwHBPr7lLN9u0YtsL-32" value="" style="rounded=1;whiteSpace=wrap;html=1;fillColor=#008a00;fontColor=#ffffff;strokeColor=#005700;" vertex="1" parent="1">
          <mxGeometry x="391" y="329.5" width="438" height="200" as="geometry" />
        </mxCell>
        <mxCell id="UbjWwHBPr7lLN9u0YtsL-33" value="OpenXR stage" style="rounded=0;whiteSpace=wrap;html=1;" vertex="1" parent="1">
          <mxGeometry x="421" y="309.5" width="190" height="20" as="geometry" />
        </mxCell>
        <mxCell id="UbjWwHBPr7lLN9u0YtsL-34" value="" style="edgeStyle=orthogonalEdgeStyle;rounded=0;orthogonalLoop=1;jettySize=auto;html=1;" edge="1" parent="1" source="UbjWwHBPr7lLN9u0YtsL-35" target="UbjWwHBPr7lLN9u0YtsL-38">
          <mxGeometry relative="1" as="geometry" />
        </mxCell>
        <mxCell id="UbjWwHBPr7lLN9u0YtsL-35" value="Process Events" style="rounded=0;whiteSpace=wrap;html=1;" vertex="1" parent="1">
          <mxGeometry x="410" y="354" width="220" height="22.5" as="geometry" />
        </mxCell>
        <mxCell id="UbjWwHBPr7lLN9u0YtsL-36" value="Process Actions" style="rounded=0;whiteSpace=wrap;html=1;" vertex="1" parent="1">
          <mxGeometry x="408" y="396.5" width="220" height="27.5" as="geometry" />
        </mxCell>
        <mxCell id="UbjWwHBPr7lLN9u0YtsL-37" value="" style="edgeStyle=orthogonalEdgeStyle;rounded=0;orthogonalLoop=1;jettySize=auto;html=1;" edge="1" parent="1" source="UbjWwHBPr7lLN9u0YtsL-38" target="UbjWwHBPr7lLN9u0YtsL-43">
          <mxGeometry relative="1" as="geometry" />
        </mxCell>
        <mxCell id="UbjWwHBPr7lLN9u0YtsL-38" value="Render Frame" style="rounded=0;whiteSpace=wrap;html=1;" vertex="1" parent="1">
          <mxGeometry x="408" y="444" width="220" height="40" as="geometry" />
        </mxCell>
        <mxCell id="UbjWwHBPr7lLN9u0YtsL-39" value="" style="edgeStyle=orthogonalEdgeStyle;rounded=0;orthogonalLoop=1;jettySize=auto;html=1;entryX=0.5;entryY=1;entryDx=0;entryDy=0;" edge="1" parent="1" source="UbjWwHBPr7lLN9u0YtsL-40" target="UbjWwHBPr7lLN9u0YtsL-32">
          <mxGeometry relative="1" as="geometry">
            <mxPoint x="709" y="554" as="targetPoint" />
            <Array as="points">
              <mxPoint x="738" y="509" />
              <mxPoint x="739" y="509" />
              <mxPoint x="739" y="514" />
              <mxPoint x="610" y="514" />
            </Array>
          </mxGeometry>
        </mxCell>
        <mxCell id="UbjWwHBPr7lLN9u0YtsL-40" value="Render View&lt;br&gt;(one for each eye)" style="rounded=0;whiteSpace=wrap;html=1;" vertex="1" parent="1">
          <mxGeometry x="669" y="367" width="138" height="122" as="geometry" />
        </mxCell>
        <mxCell id="UbjWwHBPr7lLN9u0YtsL-41" value="Create Graphics Plugin&lt;br&gt;(in this case D3D11)" style="rounded=0;whiteSpace=wrap;html=1;" vertex="1" parent="1">
          <mxGeometry x="630" y="103.5" width="179" height="100.5" as="geometry" />
        </mxCell>
        <mxCell id="UbjWwHBPr7lLN9u0YtsL-42" value="" style="shape=flexArrow;endArrow=classic;html=1;rounded=0;exitX=1;exitY=0.5;exitDx=0;exitDy=0;fillColor=#e51400;strokeColor=#B20000;entryX=-0.009;entryY=0.647;entryDx=0;entryDy=0;entryPerimeter=0;" edge="1" parent="1" source="UbjWwHBPr7lLN9u0YtsL-43" target="UbjWwHBPr7lLN9u0YtsL-6">
          <mxGeometry width="50" height="50" relative="1" as="geometry">
            <mxPoint x="317" y="435" as="sourcePoint" />
            <mxPoint x="399" y="434" as="targetPoint" />
          </mxGeometry>
        </mxCell>
        <mxCell id="UbjWwHBPr7lLN9u0YtsL-43" value="Graphic Plugin" style="rounded=0;whiteSpace=wrap;html=1;" vertex="1" parent="1">
          <mxGeometry x="678" y="450.25" width="121" height="27.5" as="geometry" />
        </mxCell>
        <mxCell id="UbjWwHBPr7lLN9u0YtsL-44" value="" style="endArrow=classic;html=1;rounded=0;exitX=0.5;exitY=1;exitDx=0;exitDy=0;entryX=0.5;entryY=0;entryDx=0;entryDy=0;" edge="1" parent="1" source="UbjWwHBPr7lLN9u0YtsL-35" target="UbjWwHBPr7lLN9u0YtsL-36">
          <mxGeometry width="50" height="50" relative="1" as="geometry">
            <mxPoint x="689" y="324" as="sourcePoint" />
            <mxPoint x="739" y="274" as="targetPoint" />
          </mxGeometry>
        </mxCell>
      </root>
    </mxGraphModel>
  </diagram>
</mxfile>
